<?xml version="1.0" encoding="utf-8"?>
<!-- Svg Vector Icons : http://www.onlinewebfonts.com/icon -->
<!DOCTYPE svg PUBLIC "-//W3C//DTD SVG 1.1//EN" "http://www.w3.org/Graphics/SVG/1.1/DTD/svg11.dtd">
<svg version="1.1" xmlns="http://www.w3.org/2000/svg" xmlns:xlink="http://www.w3.org/1999/xlink" x="0px" y="0px" viewBox="0 0 256 256" enable-background="new 0 0 256 256" xml:space="preserve">
<metadata> Svg Vector Icons : http://www.onlinewebfonts.com/icon </metadata>
<g><g><path fill="#000000" d="M45.8,136.9c-5.9-37,14.4-74.5,50.8-88.6c26.9-10.5,55.9-5.5,76.5,9.5l-17.5,28.3l78.4-0.3L206,4.5l-14.4,23.3c-30.3-19.6-71.6-26-107.7-11.9C33.8,35.4,5,85.9,10.7,136.9H45.8z"/><path fill="#000000" d="M210.2,116.7c5.9,37-14.4,74.5-50.8,88.6c-24.8,9.7-52.1,6-73.1-7c4-6.5,15.8-25.6,15.8-25.6l-84.3-5l35.7,83.8l15-24.2c30.3,19.6,67.4,24.6,103.6,10.5c50.1-19.5,78.9-70,73.2-121.1H210.2L210.2,116.7z"/></g></g>
</svg>